HIERARCHY
ROOT Hips
{
  OFFSET -102.467 93.6631 130.069
  CHANNELS 6 Xposition Yposition Zposition Zrotation Xrotation Yrotation
  JOINT LeftUpLeg
  {
    OFFSET 8.64259 1.95398 -2.38835
    CHANNELS 3 Zrotation Xrotation Yrotation
    JOINT LeftLeg
    {
      OFFSET 43.7702 0 0
      CHANNELS 3 Zrotation Xrotation Yrotation
      JOINT LeftFoot
      {
        OFFSET 40.6238 0 0
        CHANNELS 3 Zrotation Xrotation Yrotation
        JOINT LeftToeBase
        {
          OFFSET 12.7242 0 0
          CHANNELS 3 Zrotation Xrotation Yrotation
          End Site
          {
            OFFSET 0 0 0
          }
        }
      }
    }
  }
  JOINT RightUpLeg
  {
    OFFSET -8.2249 1.95398 -2.59336
    CHANNELS 3 Zrotation Xrotation Yrotation
    JOINT RightLeg
    {
      OFFSET 43.5653 0 0
      CHANNELS 3 Zrotation Xrotation Yrotation
      JOINT RightFoot
      {
        OFFSET 40.6238 0 0
        CHANNELS 3 Zrotation Xrotation Yrotation
        JOINT RightToeBase
        {
          OFFSET 12.7242 0 0
          CHANNELS 3 Zrotation Xrotation Yrotation
          End Site
          {
            OFFSET 0 0 0
          }
        }
      }
    }
  }
  JOINT Spine
  {
    OFFSET 0.165834 0.87714 6.61349
    CHANNELS 3 Zrotation Xrotation Yrotation
    JOINT Spine1
    {
      OFFSET 7.38963 1.71661e-005 0
      CHANNELS 3 Zrotation Xrotation Yrotation
      JOINT Spine2
      {
        OFFSET 11.9445 1.14441e-005 0
        CHANNELS 3 Zrotation Xrotation Yrotation
        JOINT Spine3
        {
          OFFSET 14.7254 4.19617e-005 0
          CHANNELS 3 Zrotation Xrotation Yrotation
          JOINT Spine4
          {
            OFFSET 10.9679 0 0
            CHANNELS 3 Zrotation Xrotation Yrotation
            JOINT RightShoulder
            {
              OFFSET 2.46616 -1.6653 3.69651
              CHANNELS 3 Zrotation Xrotation Yrotation
              JOINT RightArm
              {
                OFFSET 13.0012 0 0
                CHANNELS 3 Zrotation Xrotation Yrotation
                JOINT RightForeArm
                {
                  OFFSET 28.7848 1.52588e-005 0
                  CHANNELS 3 Zrotation Xrotation Yrotation
                  JOINT RightHand
                  {
                    OFFSET 26.5688 1.52588e-005 0
                    CHANNELS 3 Zrotation Xrotation Yrotation
                    End Site
                    {
                      OFFSET 0 0 0
                    }
                  }
                }
              }
            }
            JOINT LeftShoulder
            {
              OFFSET 2.38034 -1.29275 -3.7523
              CHANNELS 3 Zrotation Xrotation Yrotation
              JOINT LeftArm
              {
                OFFSET 16.3182 6.10351e-005 0
                CHANNELS 3 Zrotation Xrotation Yrotation
                JOINT LeftForeArm
                {
                  OFFSET 27.0901 0 0
                  CHANNELS 3 Zrotation Xrotation Yrotation
                  JOINT LeftHand
                  {
                    OFFSET 24.5451 1.52588e-005 0
                    CHANNELS 3 Zrotation Xrotation Yrotation
                    End Site
                    {
                      OFFSET 0 0 0
                    }
                  }
                }
              }
            }
            JOINT Neck
            {
              OFFSET 5.0226 -0.0266342 0
              CHANNELS 3 Zrotation Xrotation Yrotation
              JOINT Head
              {
                OFFSET 6.69363 2.86102e-005 0
                CHANNELS 3 Zrotation Xrotation Yrotation
                End Site
                {
                  OFFSET 0 0 0
                }
              }
            }
          }
        }
      }
    }
  }
}
MOTION
Frames:	11
Frame Time:	0.0416667
271.008 86.4458 -276.19 96.482 42.3779 82.4821 -173.313 31.4674 87.4094 -56.9377 20.9338 -7.60864 77.0447 18.3152 29.6689 37.0802 0.58811 11.2192 -176.961 40.5102 83.0851 -90.2336 6.08013 -2.39543 66.0202 9.71557 34.6827 -39.4913 13.0897 6.97423 0.936838 6.06058 -89.6155 14.7471 2.04458 0.474478 3.07765 2.06355 0.384367 -19.4674 1.80703 1.06845 0.545203 1.80705 1.06844 70.0168 -48.4123 -131.47 -16.6947 -14.7429 -43.2868 33.2066 -87.4186 0.481609 21.2212 -5.93201 -35.0209 -105.732 -29.5813 44.3033 -22.505 21.5589 -17.6221 139.152 77.7611 -179.779 -19.9257 2.08939 -18.4199 88.4434 23.2237 -5.37112 -126.865 35.2159 -2.25542 
271.166 86.3576 -276.343 96.3504 42.454 82.4959 -173.464 30.645 87.244 -56.0195 22.174 -7.48093 77.7664 20.49 30.6714 34.9422 0.799561 12.7277 -176.87 41.0591 82.961 -90.491 6.30282 -2.40529 66.8426 9.46836 34.6447 -40.4257 13.0773 7.38666 0.930433 6.0595 -89.6174 14.7523 2.03104 0.473472 3.08287 2.04993 0.383629 -19.4621 1.79476 1.06236 0.550582 1.79476 1.06236 70.2134 -48.0598 -131.384 -17.1701 -15.5386 -43.3153 33.7909 -86.1685 0.324602 20.7575 -5.60625 -34.0358 -105.725 -29.5744 44.3105 -22.483 21.4116 -17.7574 139.144 76.854 -179.794 -20.1913 1.82889 -16.567 88.4083 23.1452 -5.22194 -126.748 35.1298 -2.39304 
271.608 86.077 -276.769 95.9721 42.6746 82.5405 -173.913 28.3514 86.8032 -53.4195 25.2444 -6.92761 79.9383 26.2878 32.934 28.4973 1.01499 15.8763 -176.602 42.6352 82.6063 -91.2249 6.92334 -2.43281 69.3353 8.69781 34.5041 -43.0674 12.934 8.69637 0.912029 6.05234 -89.6237 14.7671 1.99138 0.466447 3.0976 2.01001 0.378303 -19.447 1.75913 1.04354 0.565697 1.75911 1.04352 70.7724 -47.0412 -131.142 -18.5026 -17.7982 -43.423 35.6564 -82.3596 0.163143 19.295 -4.68084 -31.1636 -105.701 -29.552 44.3366 -22.4271 20.9937 -18.1478 139.07 74.2654 -179.827 -20.9921 0.996398 -10.9787 88.3085 22.9065 -4.78663 -126.408 34.8822 -2.806 
272.254 85.5905 -277.407 95.3712 43.0286 82.6272 -174.681 25.0389 86.3517 -49.3592 29.1176 -5.92482 83.5109 34.1461 34.9041 18.3921 0.710909 18.3135 -176.161 45.0754 82.048 -92.2609 7.842 -2.47383 73.6165 7.26396 34.192 -47.1594 12.3137 11.2186 0.882416 6.04101 -89.6354 14.7899 1.927 0.451803 3.12033 1.94503 0.366516 -19.4236 1.70212 1.0102 0.589038 1.70211 1.0102 71.6379 -45.4177 -130.782 -20.522 -21.2852 -43.671 38.4665 -75.6185 0.0873294 16.4002 -3.25416 -26.465 -105.65 -29.5071 44.3914 -22.3588 20.3499 -18.7697 138.813 70.2624 -179.861 -22.3138 -0.558352 -1.68124 88.1554 22.4986 -4.08103 -125.852 34.5069 -3.51319 
273.015 84.9635 -278.204 94.5697 43.5061 82.7736 -175.709 21.4172 86.1106 -44.3098 33.1493 -4.74648 88.2446 42.1722 35.2936 6.62183 0.0857724 19.0461 -175.567 48.0711 81.3145 -93.1362 8.91459 -2.52299 79.7055 4.89313 33.6236 -52.4203 10.5223 15.5705 0.842396 6.0264 -89.654 14.8193 1.83859 0.42664 3.14961 1.85559 0.345284 -19.3936 1.62537 0.959617 0.619086 1.62535 0.95961 72.7498 -43.2489 -130.344 -23.0364 -25.7058 -44.1364 41.6618 -65.163 0.0516397 10.6619 -1.50198 -19.9354 -105.563 -29.4311 44.4877 -22.3027 19.53 -19.5999 138.367 65.257 -179.888 -23.9647 -2.87848 10.1753 87.9656 21.92 -3.12178 -125.079 34.0749 -4.55997 
273.836 84.3037 -279.124 93.5866 44.0983 83.0005 -176.844 18.1667 86.0237 -39.1676 36.9014 -3.5892 93.937 48.8842 33.5911 -4.6514 -0.397872 18.5477 -174.853 51.2316 80.4295 -93.2034 9.92587 -2.57367 87.234 1.2635 32.7339 -58.1758 6.45326 22.553 0.792606 6.00926 -89.6812 14.8539 1.72662 0.387611 3.1841 1.74202 0.311211 -19.3582 1.53028 0.88871 0.654457 1.53029 0.888714 74.0527 -40.5946 -129.864 -25.8529 -30.7238 -44.8896 45.1084 -49.3347 0.203668 -1.95101 -0.0218498 -11.8008 -105.429 -29.3163 44.6379 -22.2816 18.5827 -20.6168 137.981 59.8445 -179.907 -25.6847 -5.60877 21.9135 87.7583 21.195 -1.93148 -124.076 33.7159 -6.01831 
274.702 83.6702 -280.139 92.4391 44.796 83.3299 -177.981 15.6716 85.9787 -34.7696 40.0514 -2.58533 100.411 53.765 30.0254 -14.2078 -0.580531 17.5991 -173.986 54.2869 79.3324 -91.9061 10.548 -2.61417 95.095 -3.75237 31.4951 -62.5922 -1.10537 32.955 0.733714 5.99018 -89.7186 14.8925 1.59148 0.331366 3.22251 1.60451 0.260982 -19.3188 1.41828 0.794426 0.693835 1.41828 0.794431 75.4987 -37.5176 -129.37 -28.7802 -35.9778 -45.9649 48.1221 -26.504 -2.09901 -31.1391 0.260726 -6.77732 -105.24 -29.157 44.8531 -22.3142 17.5535 -21.7991 138.011 54.7296 -179.919 -27.566 -8.21782 30.8929 87.5504 20.3977 -0.545794 -122.803 33.6498 -7.99639 
275.61 83.0915 -281.22 91.1429 45.5893 83.7845 -179.086 13.9597 85.9159 -31.4324 42.4904 -1.76727 107.321 56.9979 25.2779 -21.8374 -0.534406 16.636 -172.764 57.1865 77.779 -88.9776 10.3652 -2.62256 101.411 -9.70954 29.8243 -62.2819 -12.1407 47.5632 0.666294 5.96977 -89.7679 14.9338 1.43359 0.254798 3.26364 1.44341 0.191448 -19.2767 1.29072 0.673937 0.735954 1.29071 0.673931 77.0466 -34.0846 -128.88 -31.626 -41.1186 -47.341 51.7694 -0.738233 -10.1703 -69.8147 7.35237 -15.312 -104.99 -28.951 45.1426 -22.4131 16.4839 -23.1253 138.636 50.4502 -179.927 -29.957 -10.4359 36.106 87.3472 19.6644 0.984122 -121.167 34.2042 -10.6638 
276.537 82.6188 -282.334 89.7115 46.4674 84.3845 179.833 12.787 85.8289 -28.8476 44.3338 -1.09596 114.055 58.9234 20.1685 -27.849 -0.352939 15.7658 -170.946 59.9182 75.4784 -84.4405 9.0573 -2.56927 104.463 -15.5739 27.4102 -53.7337 -23.2237 67.2158 0.590994 5.94861 -89.8302 14.9767 1.25359 0.1554 3.30637 1.25921 0.100065 -19.233 1.14893 0.52502 0.779688 1.14893 0.525022 78.6638 -30.3649 -128.408 -34.2153 -45.8731 -48.943 56.8412 16.8078 -20.3039 -89.2373 19.9364 -25.5293 -104.676 -28.7006 45.5129 -22.584 15.4088 -24.5741 139.845 47.146 -179.931 -33.0422 -12.2002 37.9305 87.1293 19.1429 2.61042 -118.987 35.7376 -14.2957 
277.44 82.294 -283.441 88.1558 47.4179 85.1476 178.767 11.8723 85.7363 -26.5045 45.766 -0.530552 119.94 59.8272 15.4425 -32.6246 -0.0870986 14.9786 -168.514 62.2918 72.3642 -78.3528 6.51714 -2.42663 103.533 -20.2608 23.7553 -37.865 -28.4473 90.143 0.508483 5.9271 -89.9064 15.0203 1.05244 0.0314863 3.34974 1.05282 -0.014878 -19.1886 0.994324 0.346363 0.824086 0.994317 0.346364 80.3251 -26.4275 -127.955 -36.4 -50.0727 -50.6566 60.8987 23.0044 -30.0569 -98.0094 27.5234 -29.4482 -104.302 -28.4123 45.9676 -22.8265 14.3558 -26.1245 141.584 44.6513 -179.934 -36.7413 -13.446 37.1161 86.8502 18.8883 4.3184 -115.916 38.4787 -19.3517 
278.367 81.8649 -284.573 86.4851 48.4265 86.0871 177.753 11.6594 85.6775 -25.529 46.8166 -0.0490585 125.95 60.3966 10.6472 -36.4834 0.237081 14.2489 -165.552 64.2664 68.5148 -71.2523 2.74962 -2.18419 99.109 -22.9806 18.4341 -22.0852 -26.6663 110.227 0.419569 5.90553 -89.9967 15.0637 0.831591 -0.117751 3.39301 0.825599 -0.154249 -19.1443 0.828548 0.137641 0.868394 0.828543 0.137638 82.0097 -22.3411 -127.518 -38.0611 -53.6416 -52.3503 62.2608 23.1025 -37.9142 -105.121 30.5191 -28.9746 -103.87 -28.0958 46.5074 -23.1352 13.3463 -27.7552 143.8 42.6771 -179.936 -40.776 -14.0571 34.3941 86.4428 18.8117 6.13159 -111.337 42.3986 -26.6005 
